<?xml version="1.0" encoding="utf-8"?>
<!-- Generator: Adobe Illustrator 26.0.2, SVG Export Plug-In . SVG Version: 6.00 Build 0)  -->
<svg version="1.1" id="Layer_1" xmlns="http://www.w3.org/2000/svg" xmlns:xlink="http://www.w3.org/1999/xlink" x="0px" y="0px"
	 viewBox="0 0 439.998 32.7289" style="enable-background:new 0 0 439.998 32.7289;" xml:space="preserve">
<style type="text/css">
	.st0{fill:url(#Path_357_00000163758235062283124090000001758434926299695036_);}
</style>
<linearGradient id="Path_357_00000110441894055793126820000006653513430064471937_" gradientUnits="userSpaceOnUse" x1="-1074.7605" y1="1300.728" x2="-1073.7605" y2="1300.728" gradientTransform="matrix(439.998 0 0 -32.7289 472892.4375 42587.7617)">
	<stop  offset="0" style="stop-color:#7C9573"/>
	<stop  offset="0.61" style="stop-color:#4FA9AE"/>
	<stop  offset="1" style="stop-color:#49829A"/>
</linearGradient>
<path id="Path_357" style="fill:url(#Path_357_00000110441894055793126820000006653513430064471937_);" d="M9.634,16.7419H7.49
	c0,4.857,0.081,8.216,0.2,11.617c0.081,2.629,1.619,2.994,5.262,3.156v0.486c-2.186-0.08-4.735-0.162-6.435-0.2l-0.284-5.87
	l-0.364,5.87c-1.376,0.04-3.683,0.122-5.869,0.2v-0.486c3.643-0.162,4.776-0.526,4.857-3.156c0.121-3.4,0.2-7.2,0.2-11.09
	c-0.324-0.284-1.052-0.85-1.457-1.134c0.5074-0.3344,0.994-0.6994,1.457-1.093c0-5.261-0.041-6.111-0.2-10.725
	c-0.081-2.793-1.094-3.2-4.7-3.4v-0.485c2.186,0.161,4.007,0.2,5.707,0.161l0.364,5.95l0.284-5.95c1.254,0,2.307-0.161,3.925-0.161
	c4.654,0,6.84,3.8,6.84,7.973C17.284,12.2899,15.504,16.7419,9.634,16.7419z M9.149,1.1599H7.733
	c-0.162,3.44-0.243,6.921-0.243,14.854h2.145c3.724,0,5.06-3.441,5.06-7.569C14.694,3.7089,13.075,1.1599,9.149,1.1599z
	 M15.624,5.2079c0.041,0.89,0.081,1.821,0.081,2.995c0,1.294-0.041,2.1-0.081,3.2c0.4419-1.0082,0.6625-2.0993,0.647-3.2
	c0.0259-1.0355-0.1955-2.0623-0.646-2.995H15.624z M35.578,32.0009c-2.428-0.08-5.908-0.162-10.037-0.2l-0.324-5.87l-0.325,5.87
	c-1.74,0.04-3.561,0.122-5.949,0.2v-0.486c3.643-0.162,4.775-0.526,4.856-3.156c0.122-3.4,0.2-7.408,0.2-11.131
	c-0.364-0.325-1.012-0.769-1.457-1.094c0.5151-0.308,1.0026-0.66,1.457-1.052c0-4.128-0.121-7.608-0.2-11.009
	c-0.08-2.625-1.212-2.994-4.855-3.155v-0.486c2.226,0.121,4.209,0.161,5.949,0.2l0.325,5.869l0.324-5.869
	c1.376-0.041,3.885-0.122,5.545-0.2v0.486c-3.239,0.161-4.377,0.53-4.454,3.156c-0.121,3.4-0.2,6.922-0.2,11.009
	c0.364,0.284,1.051,0.769,1.457,1.052c-0.406,0.284-1.093,0.769-1.457,1.094c0,4.128-0.041,6.921,0.041,11.616
	c0.041,1.983,0.242,2.1,1.7,2.1c1.174,0,2.59-0.041,3.805-0.122c2.347-0.161,2.914-0.85,3.845-5.1h0.526L35.578,32.0009z
	 M55.249,31.8009l-1.739-5.872l1.093,5.87c-1.74,0.04-4.006,0.122-5.828,0.2v-0.486c3.238-0.2,4.129-0.607,3.643-3.2
	c-0.566-3.036-1.3-7.123-2.064-10.929l-2.832,0.486l-2.915-0.486c-0.891,3.643-1.822,8.014-2.429,11.293
	c-0.324,1.7,0.122,2.711,3.521,2.832v0.486c-1.538-0.08-3.926-0.162-5.059-0.2l1.133-5.14l-1.821,5.14
	c-0.931,0.04-3.036,0.162-3.764,0.2v-0.486c2.1-0.242,3.2-0.93,3.966-2.914c1.336-3.481,2.307-7.2,3.481-11.495l-1.095-1.047
	l1.66-0.89l4.01-15.136h0.769l3.44,15.137c0.364,0.283,1.174,0.607,1.578,0.89c-0.3837,0.3303-0.7486,0.6819-1.093,1.053
	c0,0,1.9,8.014,2.914,11.252c0.769,2.468,1.781,3.034,4.25,3.156v0.486c-1.865-0.081-3.443-0.163-4.819-0.202V31.8009z
	 M47.68,5.1259l-2.955,11.777l2.794-0.363l2.711,0.363L47.68,5.1259z M74.596,3.8309c-1.7,3.6-3.845,8.418-5.1,11.251
	c0.5069,0.3785,1.0337,0.7297,1.578,1.052c-0.4,0.284-1.093,0.769-1.457,1.094c0,3.723,0.081,7.73,0.2,11.131
	c0.08,2.629,1.213,2.994,4.856,3.156v0.486c-2.186-0.08-4.573-0.162-5.95-0.2l-0.324-5.87l-0.324,5.87
	c-1.741,0.04-3.562,0.122-5.95,0.2v-0.486c3.643-0.162,4.776-0.526,4.856-3.156c0.123-3.4,0.2-7.408,0.2-11.131
	c-0.364-0.325-1.012-0.769-1.458-1.094c0.5156-0.3077,1.0034-0.6597,1.458-1.052c-1.7-3.764-3.845-8.459-5.14-11.009
	c-1.166-2.306-2.582-3.035-5.131-3.155v-0.486c1.539,0.08,3.44,0.161,4.817,0.2l2.833,5.909l-2.1-5.909
	c1.741-0.041,3.238-0.122,4.9-0.2v0.486c-2.914,0.161-3.359,0.849-2.428,3.2c1.7,4.209,3.279,7.933,4.129,9.632
	c0.647-1.659,2.751-7.527,3.561-10c0.526-1.578,0.162-2.793-2.347-2.832v-0.486c1.417,0.08,3.4,0.2,4.209,0.2l-1.659,5.181
	l2.347-5.181c0.81,0,3.116-0.081,4.614-0.2v0.486C76.538,1.2819,75.446,2.0099,74.596,3.8309z M95.521,31.7979l-1.74-5.87
	l1.093,5.87c-1.74,0.04-4.007,0.122-5.828,0.2v-0.486c3.238-0.2,4.129-0.607,3.643-3.2c-0.566-3.036-1.3-7.123-2.064-10.929
	l-2.833,0.486l-2.914-0.486c-0.891,3.643-1.822,8.014-2.429,11.293c-0.324,1.7,0.122,2.711,3.521,2.832v0.486
	c-1.538-0.08-3.926-0.162-5.059-0.2l1.133-5.14l-1.821,5.14c-0.931,0.04-3.036,0.162-3.765,0.2v-0.486
	c2.1-0.242,3.2-0.93,3.967-2.914c1.336-3.481,2.307-7.2,3.481-11.495l-1.096-1.046l1.66-0.89l4.01-15.136h0.769l3.44,15.137
	c0.364,0.283,1.174,0.607,1.578,0.89c-0.3837,0.3303-0.7486,0.6819-1.093,1.053c0,0,1.9,8.014,2.914,11.252
	c0.769,2.468,1.78,3.034,4.25,3.156v0.486c-1.862-0.081-3.439-0.163-4.817-0.202L95.521,31.7979z M87.953,5.1259l-2.955,11.777
	l2.793-0.363l2.712,0.363L87.953,5.1259z M126.526,19.6159c-0.122,3.4-0.081,7-0.081,11.535
	c-1.5494,0.8113-3.2701,1.2412-5.019,1.254c-5.95,0-8.661-7-8.743-15.137c-0.4579-0.4129-0.9451-0.7919-1.458-1.134
	c0.5123-0.3279,0.9996-0.6932,1.458-1.093c0.081-8.661,3.765-15.015,8.985-15.015c1.4002-0.0715,2.7983,0.1771,4.088,0.727
	l0.04,6.639h-0.686c-0.161-2.833-0.485-6.759-3.44-6.759c-4.048,0-5.99,5.706-5.99,15.541s1.7,15.582,5.869,15.582
	c0.893,0.0325,1.7684-0.2544,2.469-0.809c0-4.29,0-7.933-0.081-11.332c-0.081-2.631-1.214-3-4.856-3.157v-0.486
	c2.1,0.122,4.087,0.161,5.828,0.2l0.324,5.87l0.324-5.87c1.377-0.041,2.833-0.122,4.21-0.2v0.486
	C127.254,16.5809,126.61,17.5109,126.526,19.6159z M113.817,16.3779c-0.0647,1.5211,0.2411,3.0352,0.891,4.412
	c-0.122-1.539-0.162-2.672-0.162-4.412c-0.0246-1.3925,0.0422-2.7852,0.2-4.169C114.0746,13.4925,113.7541,14.9307,113.817,16.3779z
	 M150.81,32.0009c-5.706,0-5.747-0.121-5.747-8.013c0-4.574,0.122-7.286-4.128-7.286h-2.55c0,3.885,0.081,8.257,0.2,11.657
	c0.08,2.1,1.133,3.034,3.642,3.156v0.486c-1.5-0.08-3.359-0.162-4.735-0.2l-0.324-5.87l-0.324,5.87c-1.74,0.04-3.562,0.122-5.95,0.2
	v-0.486c3.643-0.162,4.776-0.526,4.857-3.156c0.121-3.4,0.2-7.2,0.2-11.09c-0.364-0.284-1.052-0.85-1.457-1.134
	c0.4-0.324,1.093-0.768,1.457-1.093c0-4.289-0.121-7.568-0.2-10.968c-0.081-2.63-1.214-2.995-4.857-3.156v-0.486
	c2.388,0.08,4.21,0.161,5.95,0.2l0.324,5.869l0.324-5.869c1.377-0.041,2.227-0.2,3.846-0.2c4.25,0,6.435,2.833,6.435,8.216
	c0,3.885-2.185,6.839-4.573,7.569c4.654,0.607,4.371,4.29,4.371,7.891c0,6.84,0.607,7.407,3.682,7.407h1.214v0.486H150.81z
	 M140.044,1.1599h-1.416c-0.081,5.787-0.243,10.279-0.243,14.813h2.591c2.671,0,4.209-3.157,4.209-7.285
	C145.185,3.3049,143.565,1.1599,140.044,1.1599z M146.317,20.9919l-0.283,2.63l0.4,3.6l0.283-3.6L146.317,20.9919z M146.117,5.2079
	c0.041,0.89,0.08,1.821,0.08,2.995c0,1.294-0.04,2.1-0.08,3.2c0.4419-1.0082,0.6625-2.0993,0.647-3.2
	c0.0248-1.0356-0.1973-2.0623-0.648-2.995H146.117z M170.36,31.7989l-1.74-5.87l1.093,5.87c-1.74,0.04-4.007,0.122-5.828,0.2v-0.486
	c3.238-0.2,4.128-0.607,3.643-3.2c-0.567-3.036-1.3-7.123-2.064-10.929l-2.832,0.486l-2.915-0.486
	c-0.892,3.643-1.822,8.014-2.429,11.293c-0.325,1.7,0.121,2.711,3.521,2.832v0.486c-1.538-0.08-3.927-0.162-5.06-0.2l1.133-5.14
	l-1.821,5.14c-0.93,0.04-3.035,0.162-3.764,0.2v-0.486c2.1-0.242,3.2-0.93,3.967-2.914c1.335-3.481,2.307-7.2,3.481-11.495
	l-1.093-1.053l1.66-0.89l4.006-15.137h0.769l3.441,15.137c0.363,0.283,1.174,0.607,1.578,0.89
	c-0.3838,0.3306-0.749,0.6821-1.094,1.053c0,0,1.9,8.014,2.915,11.252c0.769,2.468,1.781,3.034,4.25,3.156v0.486
	c-1.867-0.074-3.441-0.156-4.818-0.195L170.36,31.7989z M162.792,5.1259l-2.955,11.778l2.794-0.363l2.711,0.363L162.792,5.1259z
	 M194.24,4.4789c-0.121,3.4-0.2,6.476-0.2,10.726c0.4218,0.342,0.868,0.6529,1.335,0.93c-0.461,0.3014-0.9066,0.6259-1.335,0.972
	v15.622l-0.931-0.526c0,0-10.607-25.174-11.899-27.805v10.806c0.364,0.283,0.93,0.647,1.335,0.93
	c-0.4612,0.3012-0.9067,0.6256-1.335,0.972c0,3.885,0.081,7.447,0.2,10.847c0.081,2.631,1.214,3.4,4.452,3.562v0.486
	c-2.186-0.08-3.44-0.162-4.817-0.2l-0.324-4.654l-0.324,4.654c-1.741,0.04-2.469,0.122-4.857,0.2v-0.486
	c3.238-0.162,4.371-0.93,4.452-3.562c0.122-3.4,0.2-6.961,0.2-10.847c-0.4213-0.3558-0.8678-0.6807-1.336-0.972
	c0.4648-0.2811,0.911-0.5917,1.336-0.93c0-4.29-0.121-7.73-0.2-11.131c-0.081-2.63-0.81-2.995-4.452-3.156v-0.485
	c2.227,0.121,3.2,0.161,4.937,0.2l3.117,5.869l-2.347-5.869l1.294-0.2l10.484,25.336v-8.662c-0.4-0.324-0.89-0.647-1.335-0.972
	c0.4673-0.2766,0.9136-0.5875,1.335-0.93c0-4.29-0.121-7.325-0.2-10.726c-0.081-2.63-1.214-3.4-4.452-3.561v-0.485
	c2.227,0.121,3.117,0.161,4.857,0.2l0.324,4.654l0.324-4.654c1.377-0.041,2.347-0.081,4.412-0.2v0.486
	c-3.241,0.161-3.969,0.93-4.051,3.56L194.24,4.4789z M217.71,17.2689c-0.08,8.135-3.2,14.732-8.176,14.732
	c-1.618,0-2.914-0.162-3.925-0.2l-0.284-5.87l-0.364,5.87c-1.377,0.04-3.683,0.122-5.869,0.2v-0.486
	c3.642-0.162,4.775-0.526,4.856-3.156c0.122-3.4,0.2-7.2,0.2-11.09c-0.323-0.284-1.051-0.85-1.456-1.134
	c0.5071-0.3344,0.9933-0.6994,1.456-1.093c0-5.261-0.04-6.111-0.2-10.725c-0.081-2.793-1.093-3.2-4.695-3.4v-0.485
	c2.186,0.161,4.008,0.2,5.707,0.161l0.364,5.95l0.284-5.95c1.254,0,2.307-0.161,3.925-0.161c4.979,0,8.1,6.556,8.176,14.61
	c0.4636,0.3933,0.9505,0.7583,1.458,1.093C218.81,16.3779,218.079,16.9849,217.71,17.2689z M208.244,1.1599h-1.416
	c-0.161,3.6-0.242,5.95-0.242,14.854c0,7.042,0,10.2,0.041,13.235c0.041,1.66,0.688,2.1,2.145,2.1c2.955,0,5.95-0.768,5.95-15.177
	S211.563,1.1599,208.244,1.1599z M215.692,12.2079c0.1573,1.3838,0.2241,2.7765,0.2,4.169c0,1.74-0.041,2.873-0.162,4.412
	c0.6499-1.3768,0.9557-2.8909,0.891-4.412c0.0622-1.4469-0.2582-2.8845-0.929-4.168V12.2079z M237.466,31.9999
	c-1.011-0.04-7.447-0.162-9.956-0.2l-0.283-5.87l-0.365,5.87c-1.376,0.04-3.682,0.122-5.868,0.2v-0.486
	c3.642-0.162,4.775-0.526,4.856-3.156c0.121-3.4,0.2-7.2,0.2-11.09c-0.324-0.284-1.052-0.85-1.457-1.134
	c0.5074-0.3344,0.994-0.6994,1.457-1.093c0-5.261-0.041-6.111-0.2-10.725c-0.081-2.793-1.093-3.2-4.695-3.4v-0.484
	c2.186,0.161,4.007,0.2,5.706,0.161l0.365,5.95l0.283-5.95c3.481,0.041,8.094-0.122,9.43-0.161l-0.325,5.787h-0.485
	c-0.081-1.336-0.2-2.267-0.364-3.319c-0.162-1.174-0.769-1.5-2.267-1.578c-1.862-0.081-2.954-0.04-4.776-0.04
	c-0.08,1.7-0.122,2.914-0.161,4.775c-0.081,3.765-0.081,5.828-0.081,9.552h3.967c2.024,0,2.307-0.608,2.671-4.412h0.526
	c-0.122,1.741-0.2,3.279-0.2,4.937c-0.0188,1.3925,0.048,2.7847,0.2,4.169h-0.526c-0.4-3.36-0.688-3.885-2.631-3.885h-4.006
	c0,4.25-0.041,7.73,0.041,12.425c0.041,1.983,0.242,2.1,1.7,2.1c1.174,0,2.59-0.041,3.8-0.122c2.226-0.161,2.995-1.052,3.845-5.1
	h0.527L237.466,31.9999z M260.336,31.9999c-1.62,0-2.915-0.162-3.927-0.2l-0.283-5.87l-0.364,5.87c-1.377,0.04-3.683,0.122-5.87,0.2
	v-0.486c3.643-0.162,4.777-0.526,4.857-3.156c0.122-3.4,0.2-7.2,0.2-11.09c-0.324-0.284-1.052-0.85-1.458-1.134
	c0.5079-0.3342,0.9948-0.6992,1.458-1.093c0-5.261-0.04-6.111-0.2-10.725c-0.08-2.793-1.093-3.2-4.695-3.4v-0.484
	c2.186,0.161,4.007,0.161,5.707,0.161l0.364,5.95l0.283-5.95c1.254,0,2.307-0.161,3.927-0.161c4.654,0,6.839,2.793,6.839,6.961
	c0,4.209-1.618,6.759-5.1,7.811c6.072,1.133,6.677,4.735,6.677,8.135c0.002,5.303-2.91,8.662-8.415,8.662V31.9999z M260.336,15.7289
	h-2.956c0,7.043-0.121,10.482,0.041,13.519c0.082,1.66,0.688,2.1,2.146,2.1c2.671,0,6.274-0.809,6.274-8.135
	c0-5.419-1.944-7.483-5.505-7.483V15.7289z M259.036,1.1589h-1.417c-0.162,3.44-0.243,5.908-0.243,13.841h2.956
	c3.278,0,4.127-3.521,4.086-7.568c-0.035-4.532-1.614-6.272-5.377-6.272L259.036,1.1589z M265.429,4.3969
	c0.041,0.89,0.082,1.821,0.082,2.995c0,1.3-0.042,2.1-0.082,3.2c0.4437-1.0077,0.6651-2.0991,0.649-3.2
	c0.0269-1.035-0.1939-2.0615-0.644-2.994L265.429,4.3969z M266.929,20.3029c0.041,0.891,0.079,1.821,0.079,2.995
	c0,1.3-0.039,2.1-0.079,3.2c0.4411-1.0084,0.6617-2.0994,0.647-3.2c0.0262-1.0349-0.1942-2.0611-0.643-2.994L266.929,20.3029z
	 M288.055,32.0029c-1.011-0.04-7.447-0.162-9.955-0.2l-0.283-5.87l-0.365,5.87c-1.376,0.04-3.684,0.122-5.869,0.2v-0.486
	c3.643-0.162,4.776-0.526,4.856-3.156c0.122-3.4,0.2-7.2,0.2-11.09c-0.325-0.284-1.053-0.85-1.459-1.134
	c0.5081-0.3344,0.9953-0.6994,1.459-1.093c0-5.261-0.042-6.111-0.2-10.725c-0.08-2.793-1.093-3.2-4.694-3.4v-0.487
	c2.185,0.161,4.007,0.2,5.706,0.161l0.365,5.95l0.283-5.95c3.48,0.041,8.093-0.122,9.429-0.161l-0.318,5.787h-0.484
	c-0.082-1.336-0.2-2.267-0.365-3.319c-0.162-1.174-0.768-1.5-2.266-1.578c-1.862-0.081-2.954-0.04-4.776-0.04
	c-0.08,1.7-0.122,2.914-0.162,4.775c-0.08,3.765-0.08,5.828-0.08,9.552h3.966c2.024,0,2.308-0.608,2.672-4.412h0.526
	c-0.121,1.741-0.2,3.279-0.2,4.937c-0.0193,1.3925,0.0475,2.7848,0.2,4.169h-0.531c-0.4-3.36-0.688-3.885-2.631-3.885h-4.006
	c0,4.25-0.041,7.73,0.041,12.425c0.04,1.983,0.242,2.1,1.7,2.1c1.175,0,2.591-0.041,3.8-0.122c2.227-0.161,3-1.052,3.846-5.1h0.526
	L288.055,32.0029z M308.496,31.8029l-1.741-5.87l1.093,5.87c-1.74,0.04-4.007,0.122-5.828,0.2v-0.486
	c3.237-0.2,4.128-0.607,3.643-3.2c-0.567-3.036-1.294-7.123-2.064-10.929l-2.832,0.486l-2.915-0.486
	c-0.891,3.643-1.821,8.014-2.429,11.293c-0.325,1.7,0.122,2.711,3.52,2.832v0.486c-1.538-0.08-3.925-0.162-5.059-0.2l1.134-5.14
	l-1.821,5.14c-0.931,0.04-3.036,0.162-3.766,0.2v-0.486c2.106-0.242,3.2-0.93,3.967-2.914c1.336-3.481,2.307-7.2,3.482-11.495
	l-1.094-1.053l1.66-0.89l4.006-15.137h0.77l3.44,15.137c0.364,0.283,1.173,0.607,1.578,0.89
	c-0.384,0.3303-0.7493,0.6819-1.094,1.053c0,0,1.9,8.014,2.914,11.252c0.77,2.468,1.781,3.034,4.25,3.156v0.486
	c-1.8571-0.078-3.4351-0.16-4.8101-0.199L308.496,31.8029z M300.927,5.1299l-2.955,11.778l2.794-0.363l2.712,0.363L300.927,5.1299z
	 M327.644,31.1479c-1.2455,0.8631-2.7355,1.3027-4.25,1.254c-5.139,0-8.174-7.042-8.257-15.137
	c-0.4581-0.4126-0.9453-0.7916-1.458-1.134c0.5121-0.3281,0.9995-0.6934,1.458-1.093c0.082-9.147,4.047-15.015,8.864-15.015
	c1.3524-0.1228,2.7033,0.2512,3.8,1.052l0.242,6.314h-0.688c-0.283-2.793-0.445-6.759-3.358-6.759c-3.927,0-5.87,5.706-5.87,15.541
	s2.024,15.582,5.384,15.582c2.712,0,3.926-3.317,4.532-6.434l0.729,0.04L327.644,31.1479z M316.271,16.3779
	c-0.0642,1.5211,0.2415,3.035,0.891,4.412c-0.122-1.539-0.162-2.672-0.162-4.412c-0.0246-1.3925,0.0422-2.7852,0.2-4.169
	C316.5291,13.4927,316.2086,14.9307,316.271,16.3779z M347.11,31.7989l-0.324-5.87l-0.324,5.87c-1.378,0.04-2.832,0.122-4.331,0.2
	v-0.486c2.549-0.122,3.157-1.052,3.237-3.156c0.122-3.4,0.2-8.258,0.2-12.142l-4.128,0.444l-4.048-0.444
	c0,3.884,0.08,8.742,0.2,12.142c0.081,2.1,0.728,3.034,3.238,3.156v0.486c-1.5-0.08-2.954-0.162-4.331-0.2l-0.324-5.87l-0.323,5.87
	c-1.741,0.04-3.564,0.122-5.951,0.2v-0.486c3.643-0.162,4.776-0.526,4.857-3.156c0.121-3.4,0.2-7.2,0.2-11.09
	c-0.365-0.284-1.052-0.85-1.457-1.134c0.4-0.324,1.092-0.768,1.457-1.093c0-4.289-0.121-7.568-0.2-10.968
	c-0.071-2.624-1.204-2.993-4.848-3.154v-0.486c2.387,0.08,4.21,0.161,5.951,0.2l0.323,5.869l0.324-5.869
	c1.377-0.041,2.631-0.122,4.331-0.2v0.486c-2.51,0.121-3.157,1.052-3.238,3.156c-0.122,3.4-0.2,7.042-0.2,11.576l4.007-0.445
	l4.168,0.445c0-4.534-0.122-8.175-0.2-11.576c-0.04-2.1-0.688-3.035-3.237-3.156v-0.486c1.5,0.08,2.631,0.121,4.331,0.2l0.324,5.869
	l0.324-5.869c1.74-0.041,3.563-0.122,5.95-0.2v0.486c-3.643,0.161-4.776,0.526-4.856,3.156c-0.082,3.4-0.2,6.679-0.2,10.968
	c0.283,0.284,1.053,0.769,1.457,1.093c-0.4,0.284-1.133,0.85-1.457,1.134c0,3.885,0.082,7.69,0.2,11.09
	c0.08,2.629,1.213,2.994,4.856,3.156v0.486C350.675,31.9199,348.852,31.8379,347.11,31.7989z M378.761,31.1519
	c-1.2451,0.8631-2.7348,1.3028-4.249,1.254c-5.14,0-8.175-7.042-8.258-15.137c-0.4575-0.4128-0.9445-0.7919-1.457-1.134
	c0.5118-0.3281,0.9988-0.6934,1.457-1.093c0.082-9.147,4.048-15.015,8.864-15.015c1.3524-0.1225,2.7032,0.2514,3.8,1.052
	l0.242,6.314h-0.688c-0.284-2.793-0.445-6.759-3.359-6.759c-3.926,0-5.87,5.706-5.87,15.541s2.024,15.582,5.384,15.582
	c2.712,0,3.926-3.317,4.533-6.434l0.728,0.04L378.761,31.1519z M367.39,16.3779c-0.0637,1.521,0.242,3.0349,0.891,4.412
	c-0.121-1.539-0.162-2.672-0.162-4.412c-0.0247-1.3925,0.0422-2.7852,0.2-4.169C367.648,13.4927,367.3276,14.9307,367.39,16.3779z
	 M397.665,32.0009c-2.43-0.08-5.909-0.162-10.037-0.2l-0.325-5.87l-0.324,5.87c-1.74,0.04-3.562,0.122-5.949,0.2v-0.486
	c3.642-0.162,4.776-0.526,4.856-3.156c0.122-3.4,0.2-7.408,0.2-11.131c-0.365-0.325-1.012-0.769-1.458-1.094
	c0.5156-0.3077,1.0034-0.6597,1.458-1.052c0-4.128-0.122-7.608-0.2-11.009c-0.08-2.63-1.214-2.995-4.856-3.156v-0.485
	c2.225,0.121,4.209,0.161,5.949,0.2l0.324,5.869l0.325-5.869c1.376-0.041,3.884-0.122,5.545-0.2v0.486
	c-3.238,0.161-4.372,0.526-4.453,3.156c-0.121,3.4-0.2,6.922-0.2,11.009c0.363,0.284,1.053,0.769,1.458,1.052
	c-0.4,0.284-1.095,0.769-1.458,1.094c0,4.128-0.041,6.921,0.042,11.616c0.04,1.983,0.241,2.1,1.7,2.1c1.173,0,2.59-0.041,3.8-0.122
	c2.348-0.161,2.915-0.85,3.846-5.1h0.526L397.665,32.0009z M416.487,4.4779c-0.122,3.4-0.2,6.476-0.2,10.726
	c0.4218,0.3421,0.868,0.6529,1.335,0.93c-0.4,0.284-0.97,0.648-1.335,0.972c0,5.626,0.283,10.2-1.3,12.708
	c-1.0972,1.7111-3.0293,2.7006-5.059,2.591c-2.914,0-4.816-0.931-5.95-2.793c-1.052-1.78-1.132-4.168-1.132-12.384
	c-0.365-0.325-1.012-0.769-1.458-1.094c0.5154-0.308,1.0032-0.66,1.458-1.052c0-4.128-0.122-7.608-0.2-11.009
	c-0.081-2.63-1.012-2.995-4.655-3.156v-0.485c2.227,0.121,4.008,0.161,5.747,0.2l0.325,5.869l0.324-5.869
	c1.376-0.041,2.874-0.122,4.533-0.2v0.486c-2.468,0.121-3.358,0.526-3.44,3.156c-0.121,3.4-0.2,6.922-0.2,11.009
	c0.363,0.284,1.05,0.769,1.457,1.052c-0.407,0.284-1.094,0.769-1.457,1.094c0,5.706-0.041,9.956,0.891,11.656
	c0.8115,1.4612,2.3682,2.35,4.039,2.306c2.389,0,3.441-0.891,4.129-2.185c1.133-2.064,0.93-5.99,0.93-11.9
	c-0.4-0.324-0.889-0.647-1.334-0.972c0.4669-0.2769,0.9128-0.5877,1.334-0.93c0-4.29-0.122-7.325-0.2-10.726
	c-0.081-2.63-1.214-3.4-4.048-3.561v-0.485c1.9,0.121,2.713,0.161,4.452,0.2l0.324,4.654l0.324-4.654
	c1.376-0.041,2.347-0.081,4.413-0.2v0.486C417.295,1.0789,416.567,1.8479,416.487,4.4779z M431.587,31.9999
	c-1.619,0-2.915-0.162-3.927-0.2l-0.282-5.87l-0.364,5.87c-1.378,0.04-3.684,0.122-5.871,0.2v-0.486
	c3.644-0.162,4.776-0.526,4.858-3.156c0.121-3.4,0.2-7.2,0.2-11.09c-0.324-0.284-1.052-0.85-1.457-1.134
	c0.5072-0.3346,0.9938-0.6996,1.457-1.093c0-5.261-0.04-6.111-0.2-10.725c-0.082-2.793-1.093-3.2-4.7-3.4v-0.484
	c2.186,0.161,4.007,0.161,5.708,0.161l0.364,5.95l0.282-5.95c1.255,0,2.308-0.161,3.927-0.161c4.654,0,6.839,2.793,6.839,6.961
	c0,4.209-1.619,6.759-5.1,7.811c6.07,1.133,6.677,4.735,6.677,8.135c0.004,5.303-2.909,8.662-8.413,8.662L431.587,31.9999z
	 M431.587,15.7289h-2.956c0,7.043-0.121,10.482,0.042,13.519c0.081,1.66,0.688,2.1,2.144,2.1c2.673,0,6.275-0.809,6.275-8.135
	c-0.003-5.419-1.946-7.483-5.507-7.483L431.587,15.7289z M430.287,1.1589h-1.417c-0.162,3.44-0.243,5.908-0.243,13.841h2.956
	c3.278,0,4.128-3.521,4.087-7.568c-0.039-4.532-1.616-6.272-5.38-6.272L430.287,1.1589z M436.681,4.3969
	c0.041,0.89,0.081,1.821,0.081,2.995c0,1.3-0.041,2.1-0.081,3.2c0.4419-1.0082,0.6625-2.0993,0.647-3.2
	c0.0259-1.035-0.1949-2.0612-0.644-2.994L436.681,4.3969z M438.181,20.3029c0.041,0.891,0.08,1.821,0.08,2.995
	c0,1.3-0.04,2.1-0.08,3.2c0.4415-1.0083,0.6621-2.0994,0.647-3.2c0.0262-1.0352-0.1953-2.0617-0.6461-2.994L438.181,20.3029z"/>
</svg>
