<svg xmlns="http://www.w3.org/2000/svg" width="26.756" height="32.295" viewBox="0 0 26.756 32.295">
  <g id="Group_41" data-name="Group 41" transform="translate(-986.639 -367.863)">
    <path id="Path_586" data-name="Path 586" d="M15.591,16a.406.406,0,0,1-.287-.119L.117.694A.405.405,0,0,1,.69.121l14.9,14.9,14.9-14.9a.405.405,0,1,1,.576.569l0,0L15.878,15.881A.406.406,0,0,1,15.591,16Z" transform="translate(987.188 399.604) rotate(-90)" fill="#fff" stroke="#fff" stroke-width="1"/>
    <path id="Path_587" data-name="Path 587" d="M15.591,16a.406.406,0,0,1-.287-.119L.117.694A.405.405,0,0,1,.69.121l14.9,14.9,14.9-14.9a.405.405,0,1,1,.576.569l0,0L15.878,15.881A.406.406,0,0,1,15.591,16Z" transform="translate(996.895 399.604) rotate(-90)" fill="#fff" stroke="#fff" stroke-width="1"/>
  </g>
</svg>
