<svg xmlns="http://www.w3.org/2000/svg" width="26.756" height="32.295" viewBox="0 0 26.756 32.295">
  <g id="Group_40" data-name="Group 40" transform="translate(-387.327 -367.863)">
    <path id="Path_584" data-name="Path 584" d="M15.591,0A.406.406,0,0,0,15.3.119L.117,15.306a.405.405,0,0,0,.573.573l14.9-14.9,14.9,14.9a.405.405,0,1,0,.576-.569l0,0L15.878.119A.406.406,0,0,0,15.591,0Z" transform="translate(397.533 399.604) rotate(-90)" fill="#fff" stroke="#fff" stroke-width="1"/>
    <path id="Path_585" data-name="Path 585" d="M15.591,0A.406.406,0,0,0,15.3.119L.117,15.306a.405.405,0,0,0,.573.573l14.9-14.9,14.9,14.9a.405.405,0,1,0,.576-.569l0,0L15.878.119A.406.406,0,0,0,15.591,0Z" transform="translate(387.827 399.604) rotate(-90)" fill="#fff" stroke="#fff" stroke-width="1"/>
  </g>
</svg>
